<svg xmlns="http://www.w3.org/2000/svg" width="1600" height="500" viewBox="0 0 1600 500" role="img" aria-label="Premium Cow Hut background with cow illustration">
  <defs>
    <linearGradient id="bg" x1="0" x2="1" y1="0" y2="1">
      <stop offset="0%" stop-color="#07111f"/>
      <stop offset="45%" stop-color="#111827"/>
      <stop offset="100%" stop-color="#172033"/>
    </linearGradient>
    <radialGradient id="aurora" cx="50%" cy="35%" r="60%">
      <stop offset="0%" stop-color="#38bdf8" stop-opacity="0.18"/>
      <stop offset="55%" stop-color="#f59e0b" stop-opacity="0.10"/>
      <stop offset="100%" stop-color="#000" stop-opacity="0"/>
    </radialGradient>
    <linearGradient id="gold" x1="0" x2="1" y1="0" y2="0">
      <stop offset="0%" stop-color="#fde68a"/>
      <stop offset="100%" stop-color="#f59e0b"/>
    </linearGradient>
    <filter id="shadow" x="-25%" y="-25%" width="150%" height="150%">
      <feDropShadow dx="0" dy="12" stdDeviation="18" flood-color="#000" flood-opacity="0.35"/>
    </filter>
  </defs>

  <rect width="1600" height="500" fill="url(#bg)"/>
  <rect width="1600" height="500" fill="url(#aurora)"/>
  <circle cx="1270" cy="100" r="140" fill="#22d3ee" opacity="0.08"/>
  <circle cx="1435" cy="370" r="180" fill="#fb7185" opacity="0.08"/>
  <circle cx="260" cy="390" r="220" fill="#34d399" opacity="0.06"/>

  <path d="M0 365 C 220 280, 430 300, 650 230 S 1040 170, 1320 245 S 1495 355, 1600 320 V 500 H 0 Z" fill="#0b1220" opacity="0.78"/>
  <path d="M0 410 C 220 350, 420 350, 650 290 S 1060 215, 1325 275 S 1485 370, 1600 340 V 500 H 0 Z" fill="#111827" opacity="0.90"/>

  <g filter="url(#shadow)">
    <rect x="88" y="82" width="760" height="336" rx="32" fill="#0b1220" stroke="#243244"/>
    <rect x="128" y="124" width="250" height="16" rx="8" fill="url(#gold)"/>
    <rect x="140" y="150" width="620" height="82" rx="18" fill="rgba(15, 23, 42, 0.55)" stroke="#1f2937"/>
    <text x="155" y="205" fill="#f8fafc" font-family="Segoe UI, Arial, sans-serif" font-size="52" font-weight="800">Cow Hut Backend API</text>
    <text x="155" y="265" fill="#bfdbfe" font-family="Segoe UI, Arial, sans-serif" font-size="28">A modern marketplace for cows and transactions</text>
    <text x="155" y="313" fill="#e5eefb" font-family="Segoe UI, Arial, sans-serif" font-size="25">Node.js • Express • TypeScript • MongoDB</text>
    <rect x="160" y="338" width="180" height="10" rx="5" fill="url(#gold)"/>
    <rect x="352" y="338" width="120" height="10" rx="5" fill="#334155"/>
  </g>

  <g filter="url(#shadow)">
    <rect x="900" y="92" width="590" height="316" rx="36" fill="#101827" stroke="#243244"/>
    <rect x="940" y="132" width="170" height="170" rx="32" fill="#fbbf24" opacity="0.10"/>
    <rect x="930" y="330" width="520" height="52" rx="16" fill="rgba(15, 23, 42, 0.55)" stroke="#1f2937"/>

    <g transform="translate(1010 90)">
      <ellipse cx="210" cy="210" rx="110" ry="82" fill="#f8fafc" opacity="0.92"/>
      <ellipse cx="210" cy="224" rx="92" ry="65" fill="#ffffff" opacity="0.97"/>
      <path d="M132 120 C 170 52, 265 52, 315 118 C 255 140, 193 144, 132 120 Z" fill="#ffffff"/>
      <path d="M108 138 L 74 74 L 148 98 Z" fill="#111827"/>
      <path d="M302 138 L 338 74 L 264 98 Z" fill="#111827"/>
      <ellipse cx="165" cy="160" rx="18" ry="22" fill="#111827"/>
      <ellipse cx="255" cy="160" rx="18" ry="22" fill="#111827"/>
      <ellipse cx="212" cy="202" rx="10" ry="10" fill="#111827"/>
      <path d="M108 228 C 150 268, 210 280, 270 248" fill="none" stroke="#111827" stroke-width="10" stroke-linecap="round"/>
      <path d="M128 248 C 166 296, 236 304, 286 278" fill="none" stroke="#111827" stroke-width="10" stroke-linecap="round"/>
      <path d="M92 232 C 68 206, 54 206, 40 226" fill="none" stroke="#111827" stroke-width="10" stroke-linecap="round"/>
      <path d="M282 176 C 330 150, 374 168, 394 206" fill="none" stroke="#111827" stroke-width="10" stroke-linecap="round"/>
      <path d="M82 188 C 128 140, 188 122, 240 136" fill="none" stroke="#f59e0b" stroke-width="8" stroke-linecap="round" opacity="0.75"/>
      <circle cx="330" cy="210" r="18" fill="#f59e0b" opacity="0.90"/>
      <circle cx="358" cy="188" r="14" fill="#fbbf24" opacity="0.85"/>
    </g>

    <text x="950" y="364" fill="#f8fafc" font-family="Segoe UI, Arial, sans-serif" font-size="24" font-weight="700">Premium • Scalable • Production Ready</text>
  </g>
</svg>